<svg xmlns="http://www.w3.org/2000/svg" xmlns:xlink="http://www.w3.org/1999/xlink" width="340" height="221.795" viewBox="0 0 340 221.795">
  <defs>
    <clipPath id="clip-path">
      <rect id="長方形_24517" data-name="長方形 24517" width="340" height="221.795" transform="translate(0 0)" fill="none"/>
    </clipPath>
  </defs>
  <g id="グループ_889" data-name="グループ 889" transform="translate(0 -0.005)">
    <g id="グループ_888" data-name="グループ 888" transform="translate(0 0.005)" clip-path="url(#clip-path)">
      <path id="パス_13720" data-name="パス 13720" d="M1634,22.179a31.359,31.359,0,0,1-21.659,12.8c-.069.006-.113.011-.141.016s-.072-.01-.141-.016a31.359,31.359,0,0,1-21.659-12.8c-.846-1.132-1.33-1.706-.273-3.548,2.909-5.067,14.019-13.912,19.551-17.605A4.407,4.407,0,0,1,1612.2.008a.56.56,0,0,0-.182.035h.364a.56.56,0,0,0-.182-.035,4.41,4.41,0,0,1,2.523,1.018c5.531,3.693,16.641,12.538,19.55,17.605,1.058,1.842.574,2.416-.273,3.548m-21.8,12.814c.131.021-.13.021,0,0" transform="translate(-1442.963 -0.005)" fill="#ce014e" fill-rule="evenodd"/>
      <path id="パス_13721" data-name="パス 13721" d="M1241.7,236.737a31.365,31.365,0,0,1-3.514,24.916c-.038.058-.062.1-.074.121s-.053.05-.1.1a31.352,31.352,0,0,1-23.511,8.947c-1.412-.045-2.163-.025-2.943-2-2.144-5.435-2.123-19.639-1.557-26.267a4.424,4.424,0,0,1,.778-2.607.575.575,0,0,0-.086.164l.226-.284a.6.6,0,0,0-.14.12,4.413,4.413,0,0,1,2.369-1.336c6.336-2.021,20.179-5.187,25.953-4.3,2.1.322,2.245,1.059,2.6,2.427m-3.588,25.037C1238.213,261.685,1238.05,261.889,1238.116,261.774Z" transform="translate(-1098.143 -212.568)" fill="#f37020" fill-rule="evenodd"/>
      <path id="パス_13722" data-name="パス 13722" d="M1086.8,673.252a31.36,31.36,0,0,1,17.275,18.291c.021.067.036.108.047.134s.006.073.016.142a31.373,31.373,0,0,1-7.678,23.961c-.916,1.077-1.369,1.676-3.4,1.053-5.584-1.715-16.669-10.592-21.494-15.171a4.414,4.414,0,0,1-1.552-2.234.585.585,0,0,0,.075.169l-.08-.353a.579.579,0,0,0,.006.184,4.419,4.419,0,0,1,.434-2.686c2.373-6.213,8.536-19.01,12.831-22.971,1.562-1.439,2.229-1.094,3.521-.519m17.322,18.425c-.008-.132.05.123,0,0" transform="translate(-971.297 -610.726)" fill="#fdb812" fill-rule="evenodd"/>
      <path id="パス_13723" data-name="パス 13723" d="M1370.047,1138.375a31.34,31.34,0,0,1,25.068-2.093c.066.024.108.039.135.046s.06.041.12.077a31.367,31.367,0,0,1,13.932,20.951c.269,1.388.456,2.116-1.3,3.314-4.824,3.3-18.675,6.423-25.263,7.339a4.417,4.417,0,0,1-2.713-.181.552.552,0,0,0,.178.047l-.326-.157a.571.571,0,0,0,.149.11c-.3-.12-.96-.539-1.828-2.014-3.374-5.733-9.527-18.534-9.942-24.363-.15-2.119.536-2.425,1.791-3.075m25.2-2.047C1395.141,1136.252,1395.376,1136.365,1395.25,1136.328Z" transform="translate(-1242.082 -1029.984)" fill="#39b151" fill-rule="evenodd"/>
      <path id="パス_13724" data-name="パス 13724" d="M2105.728,236.737a31.366,31.366,0,0,0,3.514,24.916c.038.058.062.1.074.121s.053.05.1.1a31.353,31.353,0,0,0,23.511,8.947c1.413-.045,2.164-.025,2.943-2,2.144-5.435,2.124-19.639,1.557-26.267a4.424,4.424,0,0,0-.778-2.607.58.58,0,0,1,.086.164l-.227-.284a.593.593,0,0,1,.14.12,4.411,4.411,0,0,0-2.369-1.336c-6.336-2.021-20.179-5.187-25.953-4.3-2.1.322-2.245,1.059-2.6,2.427m3.588,25.037C2109.219,261.685,2109.382,261.889,2109.316,261.774Z" transform="translate(-1910.548 -212.568)" fill="#8e288b" fill-rule="evenodd"/>
      <path id="パス_13725" data-name="パス 13725" d="M2248.9,673.252a31.362,31.362,0,0,0-17.275,18.291c-.021.067-.036.108-.047.134s-.006.073-.015.142a31.369,31.369,0,0,0,7.678,23.961c.915,1.077,1.368,1.676,3.4,1.053,5.584-1.715,16.669-10.592,21.495-15.171a4.418,4.418,0,0,0,1.552-2.234.6.6,0,0,1-.075.169l.08-.353a.583.583,0,0,1-.005.184,4.42,4.42,0,0,0-.434-2.686c-2.373-6.213-8.536-19.01-12.831-22.971-1.562-1.439-2.229-1.094-3.52-.519m-17.322,18.425c.009-.132-.049.123,0,0" transform="translate(-2025.664 -610.726)" fill="#0296c1" fill-rule="evenodd"/>
      <path id="パス_13726" data-name="パス 13726" d="M1897.83,1138.375a31.339,31.339,0,0,0-25.068-2.093c-.066.024-.108.039-.135.046s-.06.041-.12.077a31.365,31.365,0,0,0-13.932,20.951c-.269,1.388-.455,2.116,1.3,3.314,4.824,3.3,18.675,6.423,25.262,7.339a4.418,4.418,0,0,0,2.714-.181.555.555,0,0,1-.178.047l.327-.157a.576.576,0,0,1-.148.11c.3-.12.96-.539,1.828-2.014,3.374-5.733,9.527-18.534,9.942-24.363.15-2.119-.536-2.425-1.791-3.075m-25.2-2.047C1872.736,1136.252,1872.5,1136.365,1872.628,1136.328Z" transform="translate(-1687.055 -1029.984)" fill="#0cc2b3" fill-rule="evenodd"/>
      <path id="パス_13727" data-name="パス 13727" d="M1726.722,1056.191c-2.193-1.137-8.576-2.146-11.142-2.5a5.945,5.945,0,0,0-1.131-.017c-2.521.352-9.514,1.492-11.271,2.519-.659.385-.718.922-.148,1.916,1.572,2.737,7.571,7.514,10.558,9.507a2.388,2.388,0,0,0,1.362.55.309.309,0,0,1-.1-.019h.2a.309.309,0,0,1-.1.019,2.392,2.392,0,0,0,1.362-.55c2.988-1.993,8.987-6.77,10.557-9.507.572-.994.53-1.565-.147-1.916" transform="translate(-1545.653 -956.505)" fill="#01ce97" fill-rule="evenodd"/>
      <path id="パス_13728" data-name="パス 13728" d="M1517.569,890.349c-.505-2.419-3.754-8.006-5.1-10.22a5.834,5.834,0,0,0-.7-.889c-1.865-1.733-7.166-6.435-9.072-7.147-.715-.267-1.168.025-1.578,1.1-1.128,2.947-1.04,10.616-.7,14.192a2.373,2.373,0,0,0,.434,1.4.306.306,0,0,1-.047-.088l.123.152a.3.3,0,0,1-.076-.065,2.382,2.382,0,0,0,1.286.709c3.433,1.057,10.924,2.691,14.037,2.18,1.132-.185,1.548-.577,1.392-1.325" transform="translate(-1361.871 -791.601)" fill="#b5dc00" fill-rule="evenodd"/>
      <path id="パス_13729" data-name="パス 13729" d="M1431.571,612.588c1.587-1.894,3.962-7.905,4.868-10.332a5.928,5.928,0,0,0,.263-1.1c.206-2.538.617-9.613,0-11.551-.233-.727-.743-.9-1.838-.561-3.012.938-8.979,5.754-11.575,8.237a2.39,2.39,0,0,0-.833,1.21.328.328,0,0,1,.04-.091l-.042.191a.29.29,0,0,1,0-.1,2.393,2.393,0,0,0,.24,1.449c1.3,3.351,4.65,10.247,6.977,12.377.846.774,1.411.858,1.9.273" transform="translate(-1291.269 -534.579)" fill="#fd8112" fill-rule="evenodd"/>
      <path id="パス_13730" data-name="パス 13730" d="M1581.71,420.748c2.47.034,8.629-1.921,11.082-2.752a5.883,5.883,0,0,0,1.02-.492c2.1-1.444,7.839-5.595,8.95-7.3.417-.64.229-1.146-.726-1.78-2.629-1.743-10.133-3.328-13.7-3.772a2.389,2.389,0,0,0-1.463.118.3.3,0,0,1,.1-.027l-.176.088a.33.33,0,0,1,.08-.061c-.161.067-.515.3-.972,1.1-1.779,3.121-5,10.079-5.185,13.229-.065,1.145.226,1.637.99,1.647" transform="translate(-1434.967 -367.304)" fill="#fc352b" fill-rule="evenodd"/>
      <path id="パス_13731" data-name="パス 13731" d="M1984.928,890.349c.505-2.419,3.755-8.006,5.1-10.22a5.828,5.828,0,0,1,.7-.889c1.865-1.733,7.165-6.435,9.072-7.147.714-.267,1.168.025,1.577,1.1,1.128,2.947,1.04,10.616.7,14.192a2.377,2.377,0,0,1-.435,1.4.313.313,0,0,0,.047-.088l-.124.152a.3.3,0,0,0,.077-.065,2.38,2.38,0,0,1-1.286.709c-3.433,1.057-10.924,2.691-14.037,2.18-1.133-.185-1.548-.577-1.392-1.325" transform="translate(-1801.885 -791.601)" fill="#01cebd" fill-rule="evenodd"/>
      <path id="パス_13732" data-name="パス 13732" d="M2098.494,612.588c-1.587-1.894-3.962-7.905-4.868-10.332a5.889,5.889,0,0,1-.262-1.1c-.207-2.538-.617-9.613,0-11.551.232-.727.743-.9,1.837-.561,3.012.938,8.979,5.754,11.575,8.237a2.387,2.387,0,0,1,.834,1.21.311.311,0,0,0-.04-.091l.042.191a.3.3,0,0,0,0-.1,2.392,2.392,0,0,1-.24,1.449c-1.3,3.351-4.65,10.247-6.977,12.377-.846.774-1.411.858-1.9.273" transform="translate(-1900.057 -534.579)" fill="#1e5bd8" fill-rule="evenodd"/>
      <path id="パス_13733" data-name="パス 13733" d="M1873.019,420.748c-2.47.034-8.629-1.921-11.083-2.752a5.889,5.889,0,0,1-1.02-.492c-2.1-1.444-7.839-5.595-8.95-7.3-.417-.64-.229-1.146.726-1.78,2.63-1.743,10.133-3.328,13.7-3.772a2.388,2.388,0,0,1,1.463.118.294.294,0,0,0-.1-.027l.175.088a.315.315,0,0,0-.079-.061c.162.067.515.3.972,1.1,1.778,3.121,5,10.079,5.185,13.229.065,1.145-.226,1.637-.99,1.647" transform="translate(-1681.022 -367.304)" fill="#cc20ce" fill-rule="evenodd"/>
      <path id="パス_13734" data-name="パス 13734" d="M1681.342,614.994a15.8,15.8,0,1,1-15.8,15.8,15.8,15.8,0,0,1,15.8-15.8" transform="translate(-1511.972 -558.291)" fill="#705353"/>
      <path id="パス_13735" data-name="パス 13735" d="M6.776,1915.169q6.777,5.9,18.714,5.9a45.65,45.65,0,0,0,7.879-.685q3.913-.685,5.014-1.521v-20.744H23.765v2.807H35.151v16.235a34.509,34.509,0,0,1-9.036,1.369q-10.836,0-16.749-5.294T3.452,1898.35a20.2,20.2,0,0,1,3.177-11.559,19.409,19.409,0,0,1,8.356-7.015,27.223,27.223,0,0,1,11.2-2.3,33.586,33.586,0,0,1,5.547.5,32.3,32.3,0,0,1,4.848,1.136v-2.873a16.88,16.88,0,0,0-3.948-1.069,33.824,33.824,0,0,0-6.006-.5,31.267,31.267,0,0,0-13.719,2.906,22.365,22.365,0,0,0-9.476,8.384A23.831,23.831,0,0,0,0,1898.885q0,10.389,6.776,16.285m61.385-10.138v-2.806H52v2.806Zm13.615-29.463v44.663H93.053q8.044,0,11.7-1.5a13.25,13.25,0,0,0,5.841-4.528,10.982,10.982,0,0,0,2.185-6.564,9.681,9.681,0,0,0-3.012-7.566q-3.012-2.722-8.338-2.823v-.134q9.257-1.969,9.256-10.255a10.035,10.035,0,0,0-1.248-5.145,10.143,10.143,0,0,0-4-3.657,17.837,17.837,0,0,0-6.17-2,72.578,72.578,0,0,0-9.587-.484Zm23.949,16.285a8.124,8.124,0,0,1-3.894,3.107,18,18,0,0,1-6.722,1.052h-10.1v-17.772h6.17a36.335,36.335,0,0,1,9.808.953,9.008,9.008,0,0,1,4.573,2.839,7.79,7.79,0,0,1,1.487,4.961A8.786,8.786,0,0,1,105.725,1891.852Zm1.818,21.28a8.593,8.593,0,0,1-5.161,3.458,33.995,33.995,0,0,1-8.852.968H85.009v-18.806H95.184a49.127,49.127,0,0,1,5.95.267q4.407.635,6.226,2.889a8.836,8.836,0,0,1,1.818,5.729A9.8,9.8,0,0,1,107.543,1913.132Zm19.437,7.1h2.938v-48.371H126.98Zm20.3-3.625q4.188,4.459,11.2,4.46a14.421,14.421,0,0,0,11.057-4.527q4.223-4.526,4.224-11.842,0-7.516-4.133-11.992t-11.148-4.477a14.594,14.594,0,0,0-11.184,4.493q-4.207,4.494-4.206,11.976Q143.094,1912.146,147.281,1916.606Zm20.129-1.737a11.265,11.265,0,0,1-8.926,3.725,11.382,11.382,0,0,1-9.017-3.742q-3.287-3.741-3.287-10.155,0-6.48,3.324-10.255a11.359,11.359,0,0,1,8.98-3.774,11.2,11.2,0,0,1,8.889,3.791q3.306,3.791,3.306,10.239t-3.269,10.172m26.141,6.2q5.73,0,9.036-2.622a8.512,8.512,0,0,0,3.305-7.032,6.817,6.817,0,0,0-2.259-5.5q-2.259-1.921-7.218-3.056-3.563-.8-5.326-1.4a6.452,6.452,0,0,1-2.773-1.719,4.492,4.492,0,0,1-1.011-3.124,5.18,5.18,0,0,1,2.149-4.443q2.149-1.571,6.3-1.57a18.664,18.664,0,0,1,4.647.518,25.4,25.4,0,0,1,4.132,1.486V1890a20.753,20.753,0,0,0-8.558-1.77,14.785,14.785,0,0,0-8.264,2.122,7.23,7.23,0,0,0-3.233,6.5,6.435,6.435,0,0,0,1.469,4.409,9.265,9.265,0,0,0,3.784,2.539,44.889,44.889,0,0,0,5.95,1.67,14,14,0,0,1,5.657,2.238,4.742,4.742,0,0,1,1.69,3.908,6.05,6.05,0,0,1-2.553,5.195,11.56,11.56,0,0,1-6.923,1.854,20.73,20.73,0,0,1-9.33-1.971v2.773q3.159,1.6,9.33,1.6Zm31.687,0q5.73,0,9.036-2.622a8.512,8.512,0,0,0,3.305-7.032,6.817,6.817,0,0,0-2.259-5.5q-2.259-1.921-7.218-3.056-3.563-.8-5.326-1.4a6.452,6.452,0,0,1-2.773-1.719,4.489,4.489,0,0,1-1.01-3.124,5.18,5.18,0,0,1,2.148-4.443q2.148-1.571,6.3-1.57a18.665,18.665,0,0,1,4.647.518,25.4,25.4,0,0,1,4.132,1.486V1890a20.754,20.754,0,0,0-8.558-1.77,14.785,14.785,0,0,0-8.264,2.122,7.23,7.23,0,0,0-3.233,6.5,6.433,6.433,0,0,0,1.47,4.409,9.274,9.274,0,0,0,3.783,2.539,44.875,44.875,0,0,0,5.951,1.67,14.013,14.013,0,0,1,5.657,2.238,4.745,4.745,0,0,1,1.689,3.908,6.05,6.05,0,0,1-2.553,5.195,11.56,11.56,0,0,1-6.923,1.854,20.73,20.73,0,0,1-9.33-1.971v2.773q3.159,1.6,9.33,1.6Zm26.728-4.46q4.188,4.459,11.2,4.46a14.42,14.42,0,0,0,11.056-4.527q4.224-4.526,4.224-11.842,0-7.516-4.132-11.992t-11.147-4.477a14.6,14.6,0,0,0-11.185,4.493q-4.205,4.493-4.205,11.976Q247.78,1912.146,251.967,1916.606Zm20.129-1.737a11.263,11.263,0,0,1-8.925,3.725,11.382,11.382,0,0,1-9.017-3.742q-3.289-3.741-3.288-10.155,0-6.48,3.324-10.255a11.36,11.36,0,0,1,8.981-3.774,11.2,11.2,0,0,1,8.888,3.791q3.306,3.791,3.306,10.239T272.1,1914.869Zm19.529-25.838v31.2h2.938v-23.951a20.294,20.294,0,0,1,5-4.176,11.646,11.646,0,0,1,5.84-1.436,9.109,9.109,0,0,1,6.63,2.271,8.276,8.276,0,0,1,2.333,6.212v21.079H317.3v-22.782a18.981,18.981,0,0,1,4.794-5.028,10.531,10.531,0,0,1,6.116-1.753q8.851,0,8.851,9.453v20.11H340v-20.745q0-5.344-2.957-8.3t-8.613-2.957a13.045,13.045,0,0,0-6.484,1.554,17.814,17.814,0,0,0-5.27,4.794h-.148a9.158,9.158,0,0,0-3.673-4.51,12.427,12.427,0,0,0-7.088-1.838,13.52,13.52,0,0,0-6.171,1.286,18.061,18.061,0,0,0-4.959,3.892h-.074l-.587-4.375Z" transform="translate(0 -1699.271)" fill="#7d7272" fill-rule="evenodd"/>
    </g>
  </g>
</svg>
